<svg viewBox="0 0 120 280" xmlns="http://www.w3.org/2000/svg">
  <defs><filter id="j2" x="-20%" y="-20%" width="140%" height="140%"><feTurbulence type="fractalNoise" baseFrequency="0.015" numOctaves="2" seed="101" result="n"/><feDisplacementMap in="SourceGraphic" in2="n" scale="1.6" xChannelSelector="R" yChannelSelector="G"/></filter></defs>
  <g fill="none" stroke="#4a453e" stroke-width="1.2" stroke-linejoin="round" stroke-linecap="round" filter="url(#j2)">
    <path d="M48,14 Q60,20 72,14 L84,20 Q90,40 84,64 Q96,120 100,270 L20,270 Q24,120 36,64 Q30,40 36,20 Z" />
    <path d="M50,16 Q60,22 70,16" fill="none" />
    <path d="M36,20 Q26,23 22,30 Q20,38 24,42 Q28,40 32,34 L36,20 Z" />
    <path d="M84,20 Q94,23 98,30 Q100,38 96,42 Q92,40 88,34 L84,20 Z" />
    <path d="M60,26 L60,260" stroke-dasharray="2 4" opacity="0.5" fill="none" />
  </g>
</svg>