<svg viewBox="0 0 160 300" xmlns="http://www.w3.org/2000/svg">
  <defs><filter id="c4" x="-20%" y="-20%" width="140%" height="140%"><feTurbulence type="fractalNoise" baseFrequency="0.015" numOctaves="2" seed="23" result="n"/><feDisplacementMap in="SourceGraphic" in2="n" scale="1.6" xChannelSelector="R" yChannelSelector="G"/></filter></defs>
  <g fill="none" stroke="#4a453e" stroke-width="1.6" stroke-linejoin="round" stroke-linecap="round" filter="url(#c4)" opacity="0.9">
    <path d="M62,26 L74,38 L86,38 L98,26" />
    <path d="M62,26 Q52,34 50,44 Q48,55 52,60 Q56,90 54,118 Q50,150 52,178 Q56,205 54,230 Q80,238 106,230 Q104,205 108,178 Q110,150 106,118 Q108,90 110,60 Q112,55 110,44 Q108,34 98,26 Z" />
    <path d="M80,42 Q78,140 80,232" stroke-dasharray="2 4" opacity="0.55" />
    <circle cx="80" cy="65" r="2" fill="#4a453e" /><circle cx="80" cy="95" r="2" fill="#4a453e" />
    <circle cx="80" cy="125" r="2" fill="#4a453e" /><circle cx="80" cy="155" r="2" fill="#4a453e" />
    <circle cx="80" cy="185" r="2" fill="#4a453e" /><circle cx="80" cy="215" r="2" fill="#4a453e" />
  </g>
</svg>