<!-- top-maniche-lunghe-donna.svg -->
<svg viewBox="0 0 120 200" xmlns="http://www.w3.org/2000/svg">
  <defs><filter id="j2" x="-20%" y="-20%" width="140%" height="140%"><feTurbulence type="fractalNoise" baseFrequency="0.015" numOctaves="2" seed="101" result="n"/><feDisplacementMap in="SourceGraphic" in2="n" scale="1.6" xChannelSelector="R" yChannelSelector="G"/></filter></defs>
  <g stroke="#4a453e" stroke-width="1.2" stroke-linejoin="round" stroke-linecap="round" filter="url(#j2)">
    <path d="M48,14 Q60,20 72,14 L84,20 Q88,38 82,66 Q90,110 92,190 L28,190 Q30,110 38,66 Q32,38 36,20 Z" />
    <path d="M36,20 Q24,25 19,38 Q16,93 18,160 Q19,174 25,177 L32,169 Q29,103 31,55 Q32,36 36,20 Z" />
    <path d="M84,20 Q96,25 101,38 Q104,93 102,160 Q101,174 95,177 L88,169 Q91,103 89,55 Q88,36 84,20 Z" />
    <path d="M60,26 L60,184" stroke-dasharray="2 4" opacity="0.5" fill="none" />
  </g>
</svg>